<mxfile host="app.diagrams.net" modified="2025-01-27T00:16:20.675Z" agent="Mozilla/5.0 (Windows NT 10.0; Win64; x64) AppleWebKit/537.36 (KHTML, like Gecko) Chrome/132.0.0.0 Safari/537.36" version="22.1.15" etag="OIsn2hl3rukD3GTdP2ZZ" type="github">
  <diagram name="Page-1" id="PWNxme6Adjl7geZhXdKN">
    <mxGraphModel>
      <root>
        <mxCell id="0" />
        <mxCell id="1" parent="0" />
      </root>
    </mxGraphModel>
  </diagram>
</mxfile>
